<svg version="1.1" id="Layer_1" xmlns="http://www.w3.org/2000/svg" xmlns:xlink="http://www.w3.org/1999/xlink" x="0px" y="0px"
	 viewBox="0 0 703 165.5" enable-background="new 0 0 703 165.5" xml:space="preserve">
	<g>
		<g name="creativeDeveloper">
			<path fill="#131C28" d="M275.2,120.4c-1,3.2-1.5,6.3-1.5,9.3c0,3,0.5,6.1,1.5,9.3c1,3.2,2.3,5.9,3.8,8h-4.6
				c-1.3-1.8-2.4-4.3-3.4-7.5c-1-3.3-1.6-6.5-1.6-9.7c0-3.2,0.5-6.5,1.6-9.7c1-3.3,2.2-5.8,3.4-7.5h4.6
				C277.4,114.6,276.2,117.2,275.2,120.4z"/>
			<path fill="#131C28" d="M293.3,138.9v-7.4H286v-3.6h7.3v-7.3h3.5v7.3h7.3v3.6h-7.3v7.4H293.3z"/>
			<path fill="#131C28" d="M325.3,136.1c1.1,0,2-0.2,2.7-0.5c0.8-0.4,1.6-0.9,2.4-1.7l2,2c-1.9,2.1-4.2,3.2-7,3.2
				c-2.7,0-5-0.9-6.8-2.7c-1.8-1.8-2.7-4-2.7-6.7c0-2.7,0.9-5,2.8-6.8c1.8-1.8,4.2-2.7,7-2.7c2.8,0,5.2,1,7,3.1l-1.9,2.1
				c-0.9-0.8-1.7-1.4-2.4-1.7c-0.8-0.3-1.7-0.5-2.7-0.5c-1.8,0-3.4,0.6-4.6,1.8s-1.9,2.7-1.9,4.6c0,1.9,0.6,3.4,1.9,4.6
				C322.1,135.5,323.6,136.1,325.3,136.1z"/>
			<path fill="#131C28" d="M353.2,126.6c0,3-1.3,4.9-3.9,5.7l4.7,6.6h-3.9l-4.3-6.1h-4v6.1h-3.1v-18.3h6.7c2.8,0,4.7,0.5,5.9,1.4
				C352.6,123,353.2,124.5,353.2,126.6z M349.1,129.2c0.6-0.5,0.9-1.4,0.9-2.6s-0.3-2-1-2.5c-0.6-0.4-1.8-0.7-3.4-0.7h-3.9v6.5h3.8
				C347.3,130,348.5,129.7,349.1,129.2z"/>
			<path fill="#131C28" d="M373.1,120.7v2.9h-9.7v4.8h8.7v2.7h-8.7v4.9h10v2.9h-13v-18.3H373.1z"/>
			<path fill="#131C28" d="M383.6,134.8l-1.8,4.2h-3.3l8-18.3h3.3l8,18.3h-3.3l-1.8-4.2H383.6z M391.4,131.9l-3.3-7.5l-3.3,7.5H391.4
				z"/>
			<path fill="#131C28" d="M408.2,123.5v15.4h-3.1v-15.4h-5.5v-2.8h14v2.8H408.2z"/>
			<path fill="#131C28" d="M419.7,120.7h3.1v18.3h-3.1V120.7z"/>
			<path fill="#131C28" d="M439.1,138.9h-3.4l-7.3-18.3h3.4l5.6,13.6l5.6-13.6h3.4L439.1,138.9z"/>
			<path fill="#131C28" d="M464.7,120.7v2.9H455v4.8h8.7v2.7H455v4.9h10v2.9h-13v-18.3H464.7z"/>
			<path fill="#131C28" d="M500.3,123c1.7,1.6,2.6,3.8,2.6,6.6c0,2.8-0.8,5.1-2.5,6.7c-1.7,1.7-4.3,2.5-7.8,2.5h-6v-18.3h6.2
				C496.1,120.7,498.6,121.5,500.3,123z M499.9,129.8c0-4.2-2.4-6.3-7.1-6.3h-3.1V136h3.4c2.2,0,3.9-0.5,5-1.6
				C499.3,133.4,499.9,131.8,499.9,129.8z"/>
			<path fill="#131C28" d="M522.5,120.7v2.9h-9.7v4.8h8.7v2.7h-8.7v4.9h10v2.9h-13v-18.3H522.5z"/>
			<path fill="#131C28" d="M538.5,138.9h-3.4l-7.3-18.3h3.4l5.6,13.6l5.6-13.6h3.4L538.5,138.9z"/>
			<path fill="#131C28" d="M564.1,120.7v2.9h-9.7v4.8h8.7v2.7h-8.7v4.9h10v2.9h-13v-18.3H564.1z"/>
			<path fill="#131C28" d="M571.4,138.9v-18.3h3.1V136h8.3v2.9H571.4z"/>
			<path fill="#131C28" d="M603.4,136.4c-1.8,1.8-4.1,2.7-6.8,2.7s-5-0.9-6.8-2.7s-2.7-4-2.7-6.7c0-2.7,0.9-4.9,2.7-6.7
				s4.1-2.7,6.8-2.7s5,0.9,6.8,2.7c1.8,1.8,2.7,4,2.7,6.7C606.2,132.3,605.3,134.6,603.4,136.4z M601.2,125c-1.2-1.3-2.8-1.9-4.5-1.9
				c-1.8,0-3.3,0.6-4.5,1.9c-1.2,1.3-1.9,2.9-1.9,4.7c0,1.8,0.6,3.4,1.9,4.7s2.8,1.9,4.5,1.9c1.8,0,3.3-0.6,4.5-1.9
				c1.2-1.3,1.9-2.9,1.9-4.7C603.1,127.8,602.4,126.3,601.2,125z"/>
			<path fill="#131C28" d="M625.2,122.3c1.3,1.1,1.9,2.7,1.9,4.9c0,2.2-0.6,3.8-1.9,4.9c-1.3,1-3.3,1.5-5.9,1.5H616v5.4H613v-18.3
				h6.2C621.9,120.7,624,121.2,625.2,122.3z M623,129.8c0.6-0.7,0.9-1.6,0.9-2.9c0-1.3-0.4-2.2-1.2-2.7c-0.8-0.5-2-0.8-3.7-0.8H616
				v7.3h3.6C621.3,130.8,622.4,130.4,623,129.8z"/>
			<path fill="#131C28" d="M646.3,120.7v2.9h-9.7v4.8h8.7v2.7h-8.7v4.9h10v2.9h-13v-18.3H646.3z"/>
			<path fill="#131C28" d="M668,126.6c0,3-1.3,4.9-3.9,5.7l4.7,6.6H665l-4.3-6.1h-4v6.1h-3.1v-18.3h6.7c2.8,0,4.7,0.5,5.9,1.4
				C667.4,123,668,124.5,668,126.6z M663.9,129.2c0.6-0.5,0.9-1.4,0.9-2.6s-0.3-2-1-2.5c-0.6-0.4-1.8-0.7-3.4-0.7h-3.9v6.5h3.8
				C662.1,130,663.3,129.7,663.9,129.2z"/>
			<path fill="#131C28" d="M679,139c1-3.2,1.5-6.3,1.5-9.3c0-3-0.5-6.1-1.5-9.3c-1-3.2-2.3-5.9-3.8-8h4.6c1.3,1.8,2.4,4.3,3.4,7.5
				s1.6,6.5,1.6,9.7c0,3.2-0.5,6.5-1.6,9.7c-1,3.3-2.2,5.8-3.4,7.5h-4.6C676.7,144.9,678,142.2,679,139z"/>
		</g>
		<g>
			<!-- a -->
			<path fill="#131C28" d="M30.6,100.3l-9.3,0.4c-2.1,0-3.1-0.4-3.1-1.3c0-1,0.5-1.7,1.6-2c2.3-0.9,4.3-2.8,6-5.8c1.7-3,6.1-12,13-27
				c6.9-15,13.1-28.3,18.5-39.8c0.5-1.1,1-1.8,1.3-2c0.4-0.3,1-0.4,1.7-0.4s1.2,0.1,1.5,0.4c0.2,0.3,0.6,1.3,1.2,2.9
				c0.6,1.7,1,2.9,1.3,3.8s0.8,2.3,1.6,4.2c0.7,1.9,1.9,4.8,3.4,8.7c1.6,3.9,5.2,12.4,10.8,25.4c5.6,13.1,8.9,20.5,9.8,22.3
				c0.9,1.8,2,3.3,3.6,4.5c1.5,1.3,2.8,1.9,3.9,2c1.1,0.1,2,0.3,2.8,0.5c0.8,0.3,1.1,0.8,1.1,1.7c0,1.1-1,1.6-2.9,1.6l-9.7-0.6
				l-10,0.4c-2.2,0-3.6-0.1-4.3-0.3c-0.6-0.2-0.9-0.6-0.9-1.1c0-0.6,0.3-1,0.9-1.3c0.6-0.3,1.2-0.5,1.8-0.6c0.6-0.1,1.3-0.4,1.8-1
				c0.6-0.5,0.9-1.4,0.9-2.7c0-1.3-0.9-4.3-2.7-9.2c-1.8-4.9-3.3-8.5-4.5-10.8c-0.6-1.2-2.1-1.8-4.4-1.8l-13,0.2h-5.7
				c-3.2,0-5.3,0.2-6.1,0.5c-0.8,0.4-1.5,1.1-2,2.3c-0.5,1.1-1.3,2.7-2.3,4.8c-1,2-1.7,3.5-2,4.3c-0.4,0.8-0.8,1.8-1.3,3
				c-0.9,2.2-1.4,3.9-1.4,5.4c0,1.4,0.4,2.6,1.2,3.4c0.8,0.9,1.7,1.4,2.7,1.5c2.7,0.2,4,0.9,4,2c0,0.5-0.1,0.9-0.3,1.1
				c-0.2,0.3-0.7,0.4-1.5,0.4L30.6,100.3z M50.4,50.9C47,58.8,45.3,63.2,45.3,64c0,0.9,0.3,1.4,1,1.6c0.6,0.2,2.2,0.3,4.5,0.3h3.3
				l10.2-0.1c2.8,0,4.2-0.5,4.2-1.6c0-1-1.8-5.5-5.3-13.5C59.7,42.9,57.5,39,56.6,39C55.9,39,53.9,42.9,50.4,50.9z"/>
				<!-- n -->
			<path fill="#131C28" d="M121.7,100.3l-7.9-0.4c-1.9,0-4.3,0.1-7.4,0.2l-4.6,0.2c-1.1,0-1.6-0.3-1.6-1s0.2-1,0.5-1.2
				c0.4-0.1,0.8-0.3,1.3-0.3c0.5-0.1,1.1-0.3,1.6-0.6c1.4-0.9,2.1-3.5,2.3-7.8c0.1-4.3,0.2-7.2,0.2-8.6V65.3c0-2.3-0.4-3.8-1.2-4.6
				c-0.8-0.8-2-1.2-3.4-1.2h-1.1c-1.4,0-2-0.4-2-1.2c0-0.7,0.8-1.2,2.3-1.4c1.5-0.2,2.8-0.4,3.7-0.7c0.9-0.3,2.1-0.7,3.6-1.3
				c1.5-0.6,2.7-1.1,3.6-1.6c0.9-0.4,1.5-0.6,1.8-0.6h0.2c0.6,0,1,0.4,1,1.3l-0.2,4.6c0,1.9,0.1,2.8,0.4,2.8c0.3,0,0.6-0.2,0.9-0.5
				c1.1-1.5,2.5-2.8,4.3-3.9c3.2-2,6.3-3,9.3-3c2.9,0,5.6,0.4,7.9,1.3c2.3,0.9,4.1,2,5.4,3.3c1.3,1.3,2.4,2.9,3.2,4.6
				c1.4,2.9,2.2,5.8,2.2,8.8v1.1l0.1,5.7v11c0,2.7,0.4,4.6,1.1,5.6c0.8,1,2.6,1.8,5.4,2.2c1.4,0.2,2.2,0.8,2.2,1.6
				c0,0.7-0.7,1.1-2.2,1.1l-8.8-0.5l-8.3,0.4c-1.4,0-2.2-0.5-2.2-1.4c0-0.6,0.4-1.1,1.3-1.3l1.4-0.3c1.6-0.5,2.4-2.9,2.4-7.2V75.5
				c0-5.5-1.4-9.7-4.1-12.5c-2.7-2.8-5.8-4.3-9.3-4.3s-6.3,0.8-8.6,2.5c-2.3,1.7-3.7,3.2-4.2,4.6c-0.5,1.4-0.8,6.9-0.8,16.5v4.1
				c0,3.6,0.4,6.2,1.1,8s2.4,2.7,5,2.9c0.7,0,1.6,0.1,2.7,0.4c1.1,0.3,1.7,0.7,1.7,1.2C123.8,99.8,123.1,100.3,121.7,100.3z"/>
				<!-- d -->
			<path fill="#131C28" d="M193.7,100.6l-0.3-4c0-1.2-0.3-1.8-1-1.8c-0.2,0-0.7,0.4-1.6,1.1c-0.8,0.7-1.8,1.5-2.9,2.4
				c-1.1,0.9-2.6,1.7-4.7,2.4c-2,0.7-4.3,1.1-6.6,1.1c-6.7,0-11.9-2.2-15.6-6.6c-3.7-4.4-5.6-9.9-5.6-16.5c0-6.6,2.3-12.5,7-17.7
				c4.6-5.2,11-7.9,19.2-7.9c1.9,0,4.3,0.5,7.4,1.6c3.1,1,4.7,1.6,5,1.6c0.3,0,0.4-1.3,0.4-3.9l0.2-13.9c0-3.9-0.2-6.6-0.6-8.2
				c-0.4-1.6-1-2.6-1.8-3.1c-0.8-0.5-1.9-0.8-3.3-0.8h-1.2c-1.1,0-1.7,0-1.9-0.1c-0.2-0.1-0.3-0.3-0.3-0.8v-0.1
				c0-0.5,0.4-0.9,1.1-1.1c0.7-0.3,2.2-0.7,4.4-1.4c2.2-0.7,3.9-1.3,5.2-1.9c1.3-0.6,2.2-1,2.9-1.3c1.4-0.7,2.3-1.1,2.9-1.1
				c0.9,0,1.3,0.7,1.3,2.2c0,0.2-0.2,3.3-0.7,9.1c-0.5,5.9-0.7,10.6-0.7,14.2l-0.2,39.3c0,4.9,0.2,8.1,0.7,9.8
				c0.5,1.7,1.5,2.7,3.1,3.2c0.2,0.1,0.8,0.2,1.8,0.4c1,0.2,1.7,0.4,2.2,0.6c0.4,0.3,0.6,0.7,0.6,1.2c0,0.9-2.8,1.5-8.3,1.9
				c-1.1,0.1-2.5,0.3-4,0.6c-1.5,0.3-2.4,0.5-2.8,0.5C194,101.8,193.7,101.4,193.7,100.6z M167.1,61.4c-2.7,3.4-4,7.8-4,13.1
				c0,5.3,1.7,10.3,5,14.8c3.3,4.6,7.6,6.9,12.9,6.9c3.2,0,6.2-0.8,8.8-2.5c2.7-1.6,4-3.7,4-6l0.1-18.4c0-4.4-1-7.1-3-8.3
				c-5.3-3.2-9.6-4.7-12.8-4.7C173.5,56.3,169.8,58,167.1,61.4z"/>
				<!-- y -->
			<path fill="#131C28" d="M230.1,120.7l-4.6,0.1c-1.4,0-2-0.5-2-1.4c0-0.2,0.8-1.3,2.4-3.3c1.6-2,3.3-4.5,4.9-7.4
				c1.7-2.9,2.5-5.5,2.5-7.8s-2-7.8-6.1-16.7c-4.1-8.9-7.7-16.2-10.7-21.8c-0.8-1.4-1.6-2.5-2.4-3.3c-0.8-0.8-1.5-1.2-2-1.3
				c-1.2-0.1-1.7-0.7-1.7-1.6c0-0.9,0.7-1.4,2.2-1.4l11.5,0.2l6.1-0.2c0.5,0,1,0.1,1.3,0.4c0.4,0.3,0.6,0.5,0.6,0.8
				c0,1.3-0.9,1.9-2.6,1.9h-1.6c-1.2,0-1.7,0.9-1.7,2.7c0,2.2,1.9,7.3,5.7,15.5c0.6,1.2,1.4,3.2,2.6,5.8c2.2,4.9,3.4,7.3,3.9,7.3
				s2.1-4.1,5-12.4c2.9-8.2,4.4-13.2,4.4-14.7c0-1.6-0.3-2.7-1-3.3c-0.7-0.6-1.5-1-2.3-1c-2.2,0.1-3.3-0.5-3.3-1.8
				c0-0.9,0.7-1.3,2-1.3l7.8,0.1l6.7-0.1c1.5,0,2.3,0.5,2.3,1.4c0,0.7-0.6,1.2-1.9,1.6c-1.3,0.3-2.1,0.8-2.5,1.3
				c-1.2,1.7-3.1,6.2-5.8,13.6l-9.6,25.5c-0.8,2.1-1.6,4.2-2.4,6.4c-0.8,2.2-1.4,4-1.9,5.3c-0.5,1.4-1,2.7-1.5,4.1
				c-0.5,1.4-0.9,2.4-1.2,3.2c-0.3,0.8-0.6,1.5-0.9,2.1c-0.6,1.1-1.1,1.7-1.6,1.7H230.1z"/>
				<!-- m -->
			<path fill="#131C28" d="M287.3,100.5c-1.5,0-2.3-0.6-2.3-1.7c0-0.9,1.1-1.4,3.2-1.5c0.8-0.1,1.7-0.7,2.7-1.8
				c1-1.1,1.7-2.6,2.2-4.5c0.4-1.9,0.9-8.2,1.4-19.2c0.5-10.9,0.8-19.5,0.8-25.7c0-6.2-0.7-10.7-2.1-13.4c-1.4-2.7-4.4-4.6-9.1-5.7
				c-0.9-0.2-1.4-0.8-1.4-1.6c0-1.1,0.6-1.6,1.9-1.6l5.7,0.4l8.1-0.2c1.4,0,2.2,0.5,2.6,1.5c0.9,1.9,2.4,5.2,4.6,10.1
				c2.2,4.8,4,8.7,5.3,11.6c1.3,2.9,3,6.5,5.1,11c2.1,4.4,3.8,8.1,5.1,10.8c1.3,2.8,2.6,5.5,4,8.3s2.5,4.9,3.2,6.2
				c0.8,1.3,1.2,2,1.5,2c0.2,0,0.4-0.1,0.7-0.4c0.3-0.3,0.5-0.6,0.8-1c0.3-0.4,0.5-0.9,0.6-1.3c0.2-0.4,0.4-1,0.8-1.7
				c0.3-0.7,0.6-1.2,0.7-1.6L347.3,51c3.8-7.7,6.4-13.2,7.7-16.2l2.5-5.4c0.2-0.6,0.4-1,0.5-1.3c0.1-0.3,0.2-0.6,0.3-0.8
				c0.1-0.2,0.1-0.3,0.2-0.5c0.1-0.1,0.2-0.5,0.4-1c0.2-0.5,0.4-0.9,0.6-1.1c0.6-0.6,1.6-0.9,3.1-0.9l9.3,0.2c1.2,0,1.8,0.5,1.8,1.4
				c0,0.7-0.2,1.2-0.7,1.6c-0.5,0.3-1.5,0.6-3.1,0.8c-1.6,0.2-2.8,1.1-3.5,2.7c-0.7,1.6-1.1,5.9-1.1,13c0,7.1,0.2,14.5,0.6,22.4
				c0.4,7.9,0.6,12.8,0.6,14.8c0,7.2,0.6,11.7,1.7,13.7c1.1,2,3.6,3,7.2,3c0.5,0,1,0.2,1.3,0.5c0.4,0.4,0.6,0.7,0.6,1
				c0,1.1-0.4,1.7-1.2,1.7H375l-11-0.4l-11.2,0.5c-1.3,0-1.9-0.5-1.9-1.5c0-1.1,1-1.7,2.9-1.9c0.7-0.1,1.5-0.5,2.3-1.3
				c0.8-0.8,1.4-2,1.7-3.6c0.3-1.5,0.5-3.7,0.5-6.4c0-2.7-0.1-5.7-0.2-8.9c-0.1-3.2-0.2-6.4-0.4-9.4c-0.1-3-0.3-5.9-0.4-8.6
				c-0.1-2.7-0.3-4.9-0.3-6.6l-0.2-2.6c0-3.1-0.3-4.6-1-4.6c-0.2,0-0.4,0.1-0.6,0.3c-0.2,0.2-0.3,0.4-0.5,0.5
				c-0.1,0.1-0.3,0.4-0.4,0.7c-0.1,0.3-0.3,0.6-0.4,0.8c-0.1,0.2-0.3,0.5-0.5,0.9c-0.2,0.4-0.4,0.7-0.5,1l-0.5,1.2
				c-0.3,0.5-0.5,0.9-0.6,1.3l-15,30.2c-1.7,3.5-3.4,7-5,10.3c-1.6,3.4-2.6,5.3-2.9,5.8c-0.3,0.5-0.7,0.7-1.2,0.7
				c-0.5,0-1-0.3-1.5-0.9c-0.4-0.6-1.1-2-1.9-4c-0.9-2.1-1.6-3.8-2.3-5.2c-13.2-26.7-19.9-40.2-20.2-40.6c-0.3-0.4-0.5-0.6-0.8-0.6
				c-0.6,0-0.9,1.4-0.9,4.3l-1,28.4v4.8c0,5.9,1.2,9.5,3.6,10.9c1.2,0.7,2.4,1.1,3.6,1.2c1.8,0.2,2.7,0.7,2.7,1.5
				c0,0.8-0.1,1.3-0.3,1.5c-0.2,0.3-0.6,0.4-1.3,0.4l-11.2-0.4L287.3,100.5z"/>
				<!-- i -->
			<path fill="#131C28" d="M392.4,100.7l-7.7,0.2c-2.9,0-4.3-0.5-4.3-1.5c0-1,0.5-1.6,1.6-2c0.1,0,0.2,0,0.4-0.1
				c1.7-0.6,2.7-1.4,3.2-2.6c0.5-1.1,0.8-6.7,0.8-16.7v-9.5c0-2.1-0.3-3.7-0.8-4.9c-0.5-1.2-1-2-1.4-2.3c-0.4-0.3-1.2-0.5-2.2-0.7
				c-1-0.2-1.8-0.4-2.3-0.5c-0.5-0.2-0.7-0.5-0.7-0.9c0-0.4,0.1-0.7,0.3-0.9c0.2-0.2,0.5-0.4,1.1-0.7c0.5-0.3,1.1-0.5,1.7-0.7
				c2-0.6,3.7-1.1,5-1.7c1.3-0.6,2.3-1,3-1.3c0.7-0.3,1.1-0.5,1.3-0.6c0.5-0.2,1.1-0.3,1.8-0.3c1.1,0,1.6,0.7,1.6,2l-0.6,5.2v29.5
				c0,2.2,0.3,3.8,1,5.1c0.7,1.2,1.4,2,2.2,2.3c0.8,0.3,1.6,0.5,2.6,0.5c1,0.1,1.7,0.1,1.9,0.1c1,0.1,1.5,0.6,1.5,1.5
				c0,1.2-0.6,1.8-1.8,1.8l-1.6-0.1L392.4,100.7z M386.9,40.7c-1-1.5-1.6-2.7-1.6-3.7c0-1,0.6-2.2,1.9-3.8c1.3-1.5,2.4-2.3,3.6-2.3
				c1.1,0,2.2,0.7,3.3,2.2c1.1,1.5,1.6,2.8,1.6,3.9c0,1.1-0.7,2.4-2,3.8c-1.4,1.4-2.4,2.1-3,2.1C389.2,42.9,387.9,42.2,386.9,40.7z"
				/>
			<path fill="#131C28" d="M408.7,27.2l-2.2,0.1c-1.4,0-2.2-0.4-2.2-1.2c0-0.8,1.8-1.7,5.3-2.8c0.5-0.1,1.1-0.3,1.8-0.5
				c0.7-0.2,1.1-0.3,1.2-0.4c0.1,0,0.4-0.1,0.8-0.3c0.4-0.1,0.6-0.2,0.6-0.3c0,0,0.2-0.1,0.5-0.3c0.3-0.1,0.6-0.3,0.7-0.4
				c0.1-0.1,0.4-0.3,0.9-0.5c0.4-0.3,1.1-0.7,2.1-1.3c1-0.6,1.9-0.9,2.9-0.9c0.9,0,1.4,0.7,1.4,2c0,0.1,0,0.6-0.1,1.2
				c-0.1,0.7-0.2,1.7-0.3,3c-0.1,1.3-0.2,3-0.3,4.9c-0.2,5.7-0.3,11.7-0.3,18.1l-0.3,22.1v2.3c0,3,0.1,4.5,0.4,4.5
				c0.6,0,1.3-0.4,2-1.1c0.7-0.7,1.2-1.2,1.5-1.4c10.1-8,15.1-12.6,15.1-13.6c0-1-0.8-1.8-2.4-2.5s-2.4-1.3-2.4-1.8
				c0-0.7,0.4-1.1,1.3-1.1l1.9,0.1l15.8-0.5c1.9,0,2.8,0.3,2.8,0.9c0,0.6-0.2,1-0.6,1.2c-0.4,0.2-1,0.4-1.7,0.4c-2.4,0.4-5,1.5-8,3.6
				c-0.2,0.1-0.5,0.3-0.7,0.5c-0.3,0.2-0.7,0.6-1.4,1.1c-0.7,0.5-1.5,1.1-2.4,1.8c-0.9,0.7-2.7,2-5.2,3.9c-2.5,1.9-4.1,3.1-4.6,3.6
				c-0.6,0.5-0.9,1-0.9,1.6c0,0.6,0.4,1.4,1.2,2.5c6.5,8,12.1,14,16.8,18.1c1.9,1.7,3.9,2.8,5.9,3.3c2,0.5,3.4,0.8,4.3,0.8
				s1.3,0.3,1.3,1c0,0.9-0.3,1.4-0.9,1.6c-0.6,0.2-1.8,0.3-3.5,0.3l-11.2-0.1c-1.8,0-7.4-5.8-16.9-17.5c-1.9-2.3-2.9-3.6-3.1-3.9
				c-0.2-0.3-0.6-0.4-1.2-0.4c-0.6,0-1.3,0.5-2,1.5c-0.8,1-1.1,2.2-1.1,3.4l0.1,1.8c0,5.2,0.3,8.1,0.9,8.8c0.1,0.1,0.4,0.5,1,1.3
				c0.6,0.8,2.1,1.5,4.5,1.9c2.4,0.4,3.6,1,3.6,1.6c0,1.1-1.1,1.7-3.3,1.7l-10.5-0.6l-7.9,0.4c-1.7,0-2.6-0.4-2.6-1.3
				c0-0.7,0.9-1.3,2.7-1.8c1.7-0.6,2.7-1.6,3.1-2.8c0.4-1.2,0.6-3.6,0.6-7.1l0.1-4.7l0.1-47.8C413.8,29.9,412.1,27.2,408.7,27.2z"/>
			<path fill="#131C28" d="M472.3,83.5l0.1-19.4c0-1.4-0.4-2.6-1.1-3.4c-0.8-0.9-1.5-1.3-2.1-1.3h-1.9c-1.3,0-1.9-0.5-1.9-1.5
				c0-1,0.7-1.6,2.1-1.9c1.4-0.3,3.1-0.4,5.1-0.4l6.1-0.5c1.2,0,1.9,0.3,2.2,0.8c0.2,0.5,0.3,1.8,0.3,3.8c0,2-0.1,4.8-0.3,8.2
				c-0.2,3.5-0.3,7.3-0.3,11.6c0,6.3,1.2,10.8,3.7,13.4c2.4,2.6,5.2,3.9,8.3,3.9c4.6,0,7.9-1,10-2.9c2.1-1.9,3.1-5.3,3.1-10.2
				l-0.2-14.8c0-3.6-0.3-6-0.9-7.3c-0.6-1.3-1.8-2-3.7-2.2c-1.9-0.2-2.8-0.7-2.8-1.5c0-1.6,3.2-2.5,9.5-2.5l3.9-0.5
				c1.1,0,1.8,0.2,2.1,0.5c0.3,0.4,0.5,0.9,0.5,1.6s0,1.5-0.1,2.6c0,1-0.1,2.4-0.1,4.1c0,1.7-0.1,3.7-0.2,5.8
				c-0.1,4.3-0.2,9.1-0.2,14.4c0,5.3,0.2,8.8,0.6,10.3c0.4,1.6,1.2,2.4,2.4,2.4l2.8-0.1c1.7,0,2.6,0.4,2.6,1.3c0,0.9-0.3,1.4-0.8,1.6
				c-0.5,0.2-1.5,0.3-2.9,0.3c-1.4,0-3.6,0.2-6.5,0.6c-2.9,0.4-4.5,0.6-4.7,0.6c-0.5,0-0.9-0.9-1.2-2.7s-0.5-2.7-0.6-2.7
				c-0.1,0-0.8,0.6-2.1,1.7c-1.3,1.1-3.1,2.3-5.6,3.4c-2.4,1.1-5,1.7-7.9,1.7C478.1,102.2,472.3,96,472.3,83.5z"/>
			<path fill="#131C28" d="M530.1,79.6l0.4-45.7c0-1.6-0.3-3.1-0.8-4.5c-0.5-1.3-1.1-2.1-1.8-2.4c-0.6-0.3-2.1-0.4-4.3-0.4
				c-0.8,0-1.2-0.3-1.2-0.8c0-0.5,0.1-0.9,0.2-1.1s0.3-0.4,0.7-0.6c0.4-0.2,0.8-0.3,1.3-0.5c2.1-0.4,4.2-1.2,6.5-2.3
				c3.5-1.6,5.8-2.5,6.9-2.5c0.9,0,1.3,0.7,1.3,2c0,0.3-0.1,1.1-0.2,2.5c-0.4,4.2-0.6,8.9-0.6,13.9v6l-0.2,14.3v32.1
				c0,1.5,0.1,2.7,0.4,3.7c0.3,1,1.1,1.9,2.5,2.8c1.4,0.9,3.4,1.3,5.9,1.3c0.4,0,0.7,0.2,1,0.5c0.3,0.4,0.4,0.7,0.4,1.1
				c0,1-1.1,1.5-3.3,1.5l-10.9-0.8c-1.9,0-3.6,0.1-5.3,0.4c-1.7,0.3-2.8,0.4-3.3,0.4s-1-0.1-1.3-0.4c-0.3-0.3-0.5-0.6-0.5-1
				c0-0.4,0.2-0.7,0.5-1c0.3-0.3,0.8-0.4,1.6-0.6c2.2-0.6,3.4-1.5,3.9-2.6c0.4-1.2,0.6-2.8,0.6-4.9l-0.1-2.8V79.6z"/>
			<path fill="#131C28" d="M583.8,57.2l0.4,6.5c0,1.2-0.1,2-0.4,2.5c-0.3,0.4-0.7,0.6-1.2,0.6s-1.1-0.5-1.7-1.6c-0.6-1-1.3-2.2-2-3.4
				c-0.8-1.2-2-2.3-3.7-3.4c-1.7-1-3.6-1.6-5.8-1.6c-2.2,0-3.9,0.5-5.3,1.6c-1.4,1-2,2.2-2,3.4c0,1.2,0.1,2.2,0.3,3
				c0.2,0.8,0.6,1.4,1.1,2c0.5,0.6,1,1.1,1.4,1.5c0.4,0.4,1.1,0.8,2,1.2c0.9,0.4,1.6,0.7,2.1,0.9c0.5,0.2,1.2,0.5,2.3,0.9
				c6.5,2.3,10.7,4.5,12.6,6.7c1.9,2.2,2.8,5.3,2.8,9.4s-1.9,7.9-5.7,11.3c-2.6,2.2-6.1,3.3-10.7,3.3c-3.1,0-6.5-0.8-10.3-2.3
				c-1.1-0.4-1.7-0.7-1.9-0.7c-0.2,0-0.5-0.1-0.9-0.3c-0.4-0.1-0.7-0.2-0.9-0.3c-0.2,0-0.4-0.1-0.7-0.3c-0.3-0.1-0.5-0.3-0.6-0.4
				c-0.1-0.1-0.2-0.3-0.4-0.5c-0.2-0.4-0.3-0.9-0.3-1.7v-9.4c0-0.8,0.2-1.5,0.5-2c0.3-0.5,0.8-0.8,1.3-0.8c0.6,0,1,0.2,1.2,0.5
				c0.3,0.3,0.5,1,0.7,2c0.2,1,0.4,1.7,0.6,2.2c2.7,6.6,6.4,9.9,11.2,9.9c2.2,0,4.3-0.6,6.4-1.8c2-1.2,3-3,3-5.6
				c0-2.5-0.8-4.6-2.5-6.2c-1.7-1.6-3.7-2.8-6-3.7c-2.4-0.9-4.7-1.8-7.1-2.8c-2.4-1-4.4-2.4-6-4.3c-1.7-1.9-2.5-4.3-2.5-7.2
				c0-4,1.6-7.2,4.9-9.7c3.2-2.4,6.8-3.7,10.7-3.7s6.8,0.3,8.8,0.9c2,0.6,3.2,1.2,3.6,1.7C583.6,56.3,583.8,56.7,583.8,57.2z"/>
			<path fill="#131C28" d="M589.2,27.2l-2.2,0.1c-1.4,0-2.2-0.4-2.2-1.2c0-0.8,1.8-1.7,5.3-2.8c0.5-0.1,1.1-0.3,1.8-0.5
				c0.7-0.2,1.1-0.3,1.2-0.4c0.1,0,0.4-0.1,0.8-0.3c0.4-0.1,0.6-0.2,0.6-0.3c0,0,0.2-0.1,0.5-0.3c0.3-0.1,0.6-0.3,0.7-0.4
				c0.1-0.1,0.4-0.3,0.9-0.5c0.4-0.3,1.1-0.7,2.1-1.3c1-0.6,1.9-0.9,2.9-0.9c0.9,0,1.4,0.7,1.4,2c0,0.1,0,0.6-0.1,1.2
				c-0.1,0.7-0.2,1.7-0.3,3c-0.1,1.3-0.2,3-0.3,4.9c-0.2,5.7-0.3,11.7-0.3,18.1l-0.3,22.1v2.3c0,3,0.1,4.5,0.4,4.5
				c0.6,0,1.3-0.4,2-1.1c0.7-0.7,1.2-1.2,1.5-1.4c10.1-8,15.1-12.6,15.1-13.6c0-1-0.8-1.8-2.4-2.5s-2.4-1.3-2.4-1.8
				c0-0.7,0.4-1.1,1.3-1.1l1.9,0.1l15.8-0.5c1.9,0,2.8,0.3,2.8,0.9c0,0.6-0.2,1-0.6,1.2c-0.4,0.2-1,0.4-1.7,0.4c-2.4,0.4-5,1.5-8,3.6
				c-0.2,0.1-0.5,0.3-0.7,0.5c-0.3,0.2-0.7,0.6-1.4,1.1c-0.7,0.5-1.5,1.1-2.4,1.8c-0.9,0.7-2.7,2-5.2,3.9c-2.5,1.9-4.1,3.1-4.6,3.6
				c-0.6,0.5-0.9,1-0.9,1.6c0,0.6,0.4,1.4,1.2,2.5c6.5,8,12.1,14,16.8,18.1c1.9,1.7,3.9,2.8,5.9,3.3c2,0.5,3.4,0.8,4.3,0.8
				s1.3,0.3,1.3,1c0,0.9-0.3,1.4-0.9,1.6c-0.6,0.2-1.8,0.3-3.5,0.3l-11.2-0.1c-1.8,0-7.4-5.8-16.9-17.5c-1.9-2.3-2.9-3.6-3.1-3.9
				c-0.2-0.3-0.6-0.4-1.2-0.4c-0.6,0-1.3,0.5-2,1.5c-0.8,1-1.1,2.2-1.1,3.4l0.1,1.8c0,5.2,0.3,8.1,0.9,8.8c0.1,0.1,0.4,0.5,1,1.3
				c0.6,0.8,2.1,1.5,4.5,1.9c2.4,0.4,3.6,1,3.6,1.6c0,1.1-1.1,1.7-3.3,1.7l-10.5-0.6l-7.9,0.4c-1.7,0-2.6-0.4-2.6-1.3
				c0-0.7,0.9-1.3,2.7-1.8c1.7-0.6,2.7-1.6,3.1-2.8c0.4-1.2,0.6-3.6,0.6-7.1l0.1-4.7l0.1-47.8C594.2,29.9,592.6,27.2,589.2,27.2z"/>
			<path fill="#131C28" d="M659.4,100.7l-7.7,0.2c-2.9,0-4.3-0.5-4.3-1.5c0-1,0.5-1.6,1.6-2c0.1,0,0.2,0,0.4-0.1
				c1.7-0.6,2.7-1.4,3.2-2.6c0.5-1.1,0.8-6.7,0.8-16.7v-9.5c0-2.1-0.3-3.7-0.8-4.9c-0.5-1.2-1-2-1.4-2.3c-0.4-0.3-1.2-0.5-2.2-0.7
				c-1-0.2-1.8-0.4-2.3-0.5c-0.5-0.2-0.7-0.5-0.7-0.9c0-0.4,0.1-0.7,0.3-0.9c0.2-0.2,0.5-0.4,1.1-0.7c0.5-0.3,1.1-0.5,1.7-0.7
				c2-0.6,3.7-1.1,5-1.7c1.3-0.6,2.3-1,3-1.3c0.7-0.3,1.1-0.5,1.3-0.6c0.5-0.2,1.1-0.3,1.8-0.3c1.1,0,1.6,0.7,1.6,2l-0.6,5.2v29.5
				c0,2.2,0.3,3.8,1,5.1c0.7,1.2,1.4,2,2.2,2.3c0.8,0.3,1.6,0.5,2.6,0.5c1,0.1,1.7,0.1,1.9,0.1c1,0.1,1.5,0.6,1.5,1.5
				c0,1.2-0.6,1.8-1.8,1.8l-1.6-0.1L659.4,100.7z M653.8,40.7c-1-1.5-1.6-2.7-1.6-3.7c0-1,0.6-2.2,1.9-3.8c1.3-1.5,2.4-2.3,3.6-2.3
				c1.1,0,2.2,0.7,3.3,2.2c1.1,1.5,1.6,2.8,1.6,3.9c0,1.1-0.7,2.4-2,3.8c-1.4,1.4-2.4,2.1-3,2.1C656.1,42.9,654.9,42.2,653.8,40.7z"
				/>
		</g>
	</g>
</svg>